<svg width="23" height="21" viewBox="0 0 23 21" fill="none" xmlns="http://www.w3.org/2000/svg">
<path d="M10.469 18.469L11.5295 19.5295L20.5295 10.5295C22.889 8.16999 22.889 4.32849 20.5295 1.96899C18.1685 -0.392008 14.33 -0.392008 11.969 1.96899L2.21904 11.719C0.272039 13.666 0.272039 16.8325 2.21904 18.7795C3.19104 19.7515 4.47054 20.2405 5.75004 20.2405C7.02954 20.2405 8.30754 19.753 9.28104 18.7795L18.281 9.77949C19.0235 9.03699 19.4315 8.04999 19.4315 6.99999C19.4315 5.94999 19.0235 4.96299 18.2795 4.21899C16.7945 2.73399 14.204 2.73399 12.719 4.21899L4.46904 12.469L5.52954 13.5295L13.7795 5.27949C14.696 4.36299 16.3025 4.36299 17.219 5.27949C17.678 5.73849 17.9315 6.34899 17.9315 6.99999C17.9315 7.65099 17.678 8.26149 17.219 8.71899L8.21904 17.719C6.85704 19.081 4.64154 19.081 3.27954 17.719C1.91754 16.357 1.91754 14.1415 3.27954 12.7795L13.0295 3.02949C14.8055 1.25349 17.693 1.25349 19.469 3.02949C21.245 4.80549 21.245 7.69299 19.469 9.46899L10.469 18.469Z" fill="#747474"/>
</svg>
