<svg width="652" height="360" viewBox="0 0 652 360" fill="none" xmlns="http://www.w3.org/2000/svg">
<path fill-rule="evenodd" clip-rule="evenodd" d="M347.155 186.297C350.137 178.632 348.556 165.286 348.556 165.286C348.556 165.286 342.508 180.257 335.947 189.098C330.414 196.553 326.116 201.187 319.134 207.308C308.518 216.615 289.712 228.318 289.712 228.318C289.712 228.318 285.509 231.12 282.707 231.12C281.066 231.12 284.108 226.918 284.108 226.918C284.108 226.918 299.986 208.958 309.327 197.502C310.802 195.693 312.023 194.339 313.275 192.951C316.192 189.715 319.277 186.293 326.14 176.492C335.947 162.484 342.952 134.47 342.952 134.47C342.952 134.47 328.459 152.402 317.733 162.484C306.091 173.428 285.509 187.697 285.509 187.697C285.509 187.697 282.854 189.872 281.306 189.098C279.758 188.324 281.306 183.495 281.306 183.495L282.707 179.293C282.707 179.293 280.973 179.056 279.905 179.293C278.711 179.558 277.103 180.694 277.103 180.694C277.103 180.694 267.845 187.956 257.488 196.102C242.579 207.827 216.858 224.116 216.858 224.116C216.858 224.116 213.815 225.277 212.654 224.116C211.494 222.956 212.654 219.914 212.654 219.914L228.066 198.903C228.066 198.903 220.698 193.465 216.858 189.098C212.95 184.654 208.451 176.492 208.451 176.492L214.056 196.102C214.056 196.102 214.829 198.13 214.056 198.903C213.282 199.677 211.253 198.903 211.253 198.903C211.253 198.903 200.069 190.397 194.441 183.495C190.701 178.909 186.035 172.289 186.035 172.289C186.035 172.289 184.968 174.261 184.634 176.492C183.593 183.43 185.564 187.956 188.044 193.65C188.753 195.277 189.504 197.001 190.238 198.903C195.079 211.457 205.649 229.719 205.649 229.719C205.649 229.719 207.408 234.013 205.649 235.322C203.687 236.782 200.045 232.521 200.045 232.521L174.826 196.102C174.826 196.102 178.164 222.056 174.826 238.124C172.078 251.352 162.217 270.34 162.217 270.34C162.217 270.34 160.575 272.128 159.415 271.741C158.254 271.354 158.014 268.94 158.014 268.94C158.014 268.94 159.415 257.734 159.415 249.329C159.415 243.751 158.014 233.921 158.014 233.921C158.014 233.921 157.383 230.33 155.211 229.719C154.21 229.438 152.409 231.12 152.409 231.12C152.409 231.12 134.058 254.451 121.586 266.138C103.093 283.467 82.3568 295.553 66.9453 301.156C51.5337 306.759 31.919 309.561 30.5179 306.759C29.1169 303.958 43.1274 291.351 43.1274 291.351C43.1274 291.351 67.7946 271.72 80.9558 252.131C87.2379 242.781 90.7631 226.918 90.7631 226.918C90.7631 226.918 84.2022 238.761 68.3463 249.329C59.94 254.932 48.7316 260.535 48.7316 260.535C48.7316 260.535 46.7033 261.309 45.9295 260.535C45.1557 259.762 45.9295 257.734 45.9295 257.734C45.9295 257.734 61.3411 225.517 50.1326 221.315C50.1326 221.315 38.6758 239.894 27.7158 247.929C18.0389 255.023 3.89796 260.535 3.89796 260.535C3.89796 260.535 1.86963 261.309 1.09585 260.535C0.322076 259.762 1.09585 257.734 1.09585 257.734C1.09585 257.734 19.5117 226.814 29.1169 205.907C37.938 186.706 48.7316 156.881 48.7316 156.881C48.7316 156.881 49.9861 154.08 51.5337 154.08C53.0813 154.08 54.3358 156.881 54.3358 156.881C54.3358 156.881 61.6952 168.216 66.9453 175.091C72.5997 182.495 80.9558 193.3 80.9558 193.3C80.9558 193.3 83.1862 196.102 85.1589 196.102C87.1317 196.102 89.3621 193.3 89.3621 193.3C89.3621 193.3 108.839 164.076 121.586 142.874C135.453 119.81 153.81 81.2421 153.81 81.2421C153.81 81.2421 155.065 78.4407 156.612 78.4407C158.16 78.4407 160.816 81.2421 160.816 81.2421C160.816 81.2421 164.533 86.7748 169.222 92.448C173.101 97.1418 175.5 100.478 178.458 104.593L178.459 104.594C179.487 106.024 180.582 107.549 181.831 109.257C192.043 123.221 207.05 145.676 207.05 145.676L212.654 141.473C212.654 141.473 215.188 139.618 216.858 140.073C218.351 140.48 219.66 142.874 219.66 142.874C219.66 142.874 222.445 156.909 228.066 166.686C233.138 175.508 243.478 187.697 243.478 187.697C243.478 187.697 267.14 164.356 281.306 148.477C296.835 131.071 319.134 102.253 319.134 102.253L337.348 81.2421C337.348 81.2421 338.927 79.8414 340.15 79.8414C341.374 79.8414 342.952 81.2421 342.952 81.2421L363.968 102.253L405.999 33.6174C405.999 33.6174 407.732 30.816 408.802 30.816C409.733 30.816 411.329 32.1842 412.509 33.1951C412.685 33.3457 412.851 33.4884 413.005 33.6174C413.713 34.2123 414.086 34.6827 414.417 35.1001C414.792 35.5729 415.113 35.9778 415.807 36.4189C417.267 37.3476 418.28 37.8196 420.01 37.8196C421.74 37.8196 422.99 37.642 424.213 36.4189C424.898 35.7346 425.798 33.0124 426.924 29.6059L426.924 29.6057C428.104 26.039 429.531 21.7223 431.218 18.2094C434.509 11.3591 439.625 2.80145 439.625 2.80145C439.625 2.80145 441.026 0 442.427 0C443.828 0 446.63 2.80145 446.63 2.80145C446.63 2.80145 473.874 33.7657 490.062 54.6283C498.324 65.275 504.969 76.1477 511.27 86.4583L511.27 86.4586C521.503 103.203 530.83 118.464 544.703 128.867C545.089 129.156 545.455 129.438 545.809 129.71C548.146 131.51 549.927 132.882 553.11 133.069C557.27 133.314 568.521 117.661 568.521 117.661C568.521 117.661 571.177 113.459 572.724 113.459C574.272 113.459 576.928 117.661 576.928 117.661C576.928 117.661 589.453 132.609 596.542 142.874C604.31 154.121 606.976 160.794 609.531 167.188C611.505 172.129 613.413 176.904 617.558 183.495C623.618 193.132 630.282 203.03 634.371 207.308C638.985 212.135 648.381 219.914 648.381 219.914C648.381 219.914 651.57 222.182 651.183 224.116C650.88 225.633 644.178 224.116 644.178 224.116C644.178 224.116 634.851 220.796 628.767 217.113C617.841 210.498 611.573 203.235 603.548 193.3C592.104 179.135 579.73 154.08 579.73 154.08C579.73 154.08 577.239 150.3 575.527 151.278C574.464 151.885 575.527 154.08 575.527 154.08L581.131 176.492C581.131 176.492 581.192 179.178 579.73 180.694C577.852 182.641 575.527 179.293 575.527 179.293C575.527 179.293 570.289 169.371 562.917 162.484C557.798 157.701 548.907 151.278 548.907 151.278C548.907 151.278 522.573 131.569 508.276 116.26C491.695 98.5047 471.849 65.8342 471.849 65.8342C471.849 65.8342 469.193 62.2591 467.646 63.0327C466.098 63.8063 467.646 67.2349 467.646 67.2349L494.266 120.462C494.266 120.462 496.827 126.306 495.667 127.466C494.506 128.627 491.464 126.065 491.464 126.065L463.443 103.654C463.443 103.654 466.537 120.257 470.448 130.268C476.525 145.823 492.865 166.686 492.865 166.686L515.281 196.102C515.281 196.102 518.381 200.325 516.682 201.705C514.932 203.127 509.677 198.903 509.677 198.903C509.677 198.903 486.606 178.645 470.448 162.484C457.307 149.342 438.224 127.466 438.224 127.466C438.224 127.466 436.97 140.694 439.625 148.477C441.443 153.807 445.229 159.683 445.229 159.683C445.229 159.683 447.173 162.935 446.63 163.885C446.023 164.947 442.427 163.885 442.427 163.885C442.427 163.885 431.076 160.602 424.213 155.481C418.632 151.316 411.604 142.874 411.604 142.874C411.604 142.874 416.471 160.195 420.01 168.087C423.403 175.655 426.825 180.43 430.747 185.904L430.747 185.904L430.747 185.904C432.638 188.544 434.646 191.346 436.823 194.701C441.485 201.888 445.588 207.564 449.54 213.03C455.037 220.633 460.24 227.83 466.245 238.124C476.107 255.029 488.661 282.947 488.661 282.947C488.661 282.947 491.464 289.95 490.062 289.95C487.807 289.95 484.458 285.748 484.458 285.748C484.458 285.748 476.997 275.814 467.646 268.94C460.538 263.714 445.229 257.734 445.229 257.734C445.229 257.734 417.687 251.575 404.598 253.532C400.828 254.095 397.45 254.549 394.278 254.975L394.277 254.975C384.498 256.288 376.676 257.338 365.369 260.535C349.581 264.999 339.551 270.24 327.513 276.531L327.511 276.532C322.838 278.973 317.862 281.573 312.129 284.348C302.25 289.128 294.56 293.509 287.08 297.77C277.714 303.106 268.678 308.254 256.087 313.763C226.483 326.715 208.309 331.521 177.913 339.56L177.868 339.572C176.868 339.836 175.854 340.105 174.826 340.377C168.213 342.127 161.283 344.139 154.209 346.194C131.209 352.874 106.676 360 86.4988 360C60.1151 360 40.8428 356.846 27.7158 348.781C23.0543 345.917 16.5074 340.377 16.5074 340.377C16.5074 340.377 14.8664 338.775 15.1064 337.575C15.4457 335.879 19.3095 336.174 19.3095 336.174C19.3095 336.174 50.9851 336.663 71.1484 334.774C88.1098 333.184 98.7632 331.098 113.43 328.226L113.446 328.223C116.431 327.638 119.582 327.021 122.987 326.369C125.752 325.84 128.436 325.329 131.049 324.831C167.716 317.847 190.375 313.531 228.066 298.355C232.341 296.633 236.414 295.044 240.328 293.517L240.329 293.517C261.974 285.072 278.766 278.52 298.119 261.936C327.541 236.723 337.348 211.51 347.155 186.297ZM124.392 180.694C124.392 180.694 125.222 175.091 127.194 175.091C129.167 175.091 131.398 180.694 131.398 180.694L132.799 186.297C132.799 186.297 134.018 191.2 135.601 191.9C137.405 192.697 138.403 183.495 138.403 183.495L139.804 169.488C139.804 169.488 141.205 158.282 142.606 158.282C144.007 158.282 145.408 162.484 145.408 162.484L146.809 166.687C146.809 166.687 148.388 169.488 149.611 169.488C150.835 169.488 151.012 166.687 151.012 166.687L148.21 134.47C148.21 134.47 147.915 130.607 149.611 130.268C150.811 130.028 152.413 131.668 152.413 131.668C152.413 131.668 155.215 134.47 156.616 134.47C157.173 134.47 157.439 132.731 157.73 130.835C158.078 128.563 158.46 126.065 159.419 126.065C160.82 126.065 163.622 134.47 163.622 134.47C163.622 134.47 167.106 144.981 165.023 145.676C162.94 146.37 156.616 137.271 156.616 137.271C156.616 137.271 155.282 135.381 153.814 135.871C152.257 136.389 153.814 142.874 153.814 142.874L155.215 152.679L158.017 166.687C158.017 166.687 160.012 173.454 160.82 177.892C162.096 184.91 162.221 196.102 162.221 196.102L155.215 187.697C155.215 187.697 154.588 186.297 153.814 186.297C153.041 186.297 152.413 187.697 152.413 187.697C152.413 187.697 147.281 204.81 141.205 214.311C133.581 226.232 127.139 231.311 117.029 239.284C115.804 240.249 114.525 241.258 113.184 242.326C105.821 248.189 92.1681 256.333 92.1681 256.333C92.1681 256.333 103.672 244.391 108.981 235.322C112.447 229.4 113.76 225.612 115.601 220.297C116.458 217.822 117.43 215.016 118.788 211.51C123.565 199.171 124.392 180.694 124.392 180.694ZM410.2 71.7874C409.658 72.7373 411.601 77.04 411.601 77.04C411.601 77.04 417.566 94.8966 410.2 97.0005C408.096 97.6016 404.596 97.0005 404.596 97.0005C404.596 97.0005 401.167 96.854 400.393 98.4012C399.699 99.7894 400.559 100.943 401.478 102.176C401.583 102.317 401.69 102.46 401.794 102.603C401.909 102.762 402.024 102.92 402.139 103.079C404.824 106.776 407.566 110.552 414.404 116.26C421.534 122.214 424.211 122.214 424.211 122.214C424.211 122.214 419.637 103.946 421.409 94.199C421.409 94.199 422.139 93.1843 422.81 92.7983C425.181 91.4336 445.227 112.408 445.227 112.408C445.227 112.408 451.282 117.153 452.232 116.611C453.294 116.004 449.43 109.607 449.43 109.607C449.43 109.607 445.084 102.603 442.424 88.5961C440.031 75.9896 442.424 66.1844 442.424 66.1844C442.424 66.1844 442.614 64.9567 443.826 64.7837C446.89 64.3461 449.43 67.5851 449.43 67.5851L453.633 71.7873C453.633 71.7873 455.828 74.25 456.435 73.188C456.978 72.2381 453.633 66.1844 453.633 66.1844C453.633 66.1844 450.821 62.051 449.43 59.1808C446.938 54.0417 445.227 45.1735 445.227 45.1735C445.227 45.1735 444.84 44.1595 445.227 43.7727C445.613 43.3859 449.43 45.1735 449.43 45.1735C449.668 45.2264 449.907 45.2993 450.142 45.3709C450.958 45.6201 451.722 45.8534 452.232 45.1735C452.966 44.1949 449.43 40.9713 449.43 40.9713L448.029 39.5706C448.029 39.5706 445.227 38.1698 445.227 40.9713C445.227 42.1724 445.043 42.1985 443.89 42.3628L443.826 42.372C443.074 42.4793 442.233 42.0348 441.382 41.5844C440.291 41.008 439.183 40.422 438.221 40.9714C437.159 41.5782 439.622 47.975 439.622 47.975L441.023 52.1772C441.023 52.1772 444.535 61.1866 442.424 61.9823C440.806 62.5926 438.221 59.1808 438.221 59.1808C438.221 59.1808 434.866 54.8226 432.617 56.3794C431.195 57.364 431.216 60.5816 431.216 60.5816L432.617 70.3867C432.617 70.3867 434.915 88.2679 432.617 88.5961C430.904 88.8407 428.414 87.1954 428.414 87.1954C428.414 87.1954 424.022 84.5395 420.008 80.1917C417.332 77.2932 414.404 74.5889 414.404 74.5889C414.404 74.5889 410.807 70.7254 410.2 71.7874Z" fill="#58CFF6"/>
</svg>
