<svg width="110" height="110" viewBox="0 0 110 110" fill="none" xmlns="http://www.w3.org/2000/svg">
<path fill-rule="evenodd" clip-rule="evenodd" d="M32.2831 0.675011C23.3297 1.07899 15.5695 3.26797 9.30322 9.50778C3.01507 15.7804 0.853278 23.5714 0.448296 32.4316C0.19655 37.9617 -1.27553 79.7407 2.99319 90.6972C5.87183 98.0889 11.5414 103.772 19.0007 106.66C22.4814 108.014 26.4547 108.93 32.2831 109.198C81.0176 111.403 99.0829 110.203 106.701 90.6972C108.053 87.2252 108.983 83.2554 109.24 77.4414C111.468 28.5819 108.879 17.9913 100.386 9.50778C93.6486 2.78754 85.7241 -1.78706 32.2831 0.675011ZM32.7318 99.3716C27.3959 99.1313 24.5008 98.2422 22.569 97.4943C17.7092 95.6055 14.0589 91.9703 12.1818 87.1389C8.93099 78.8136 10.0092 39.2729 10.2992 32.8747C10.5838 26.6076 11.8534 20.8799 16.2754 16.458C21.7481 10.9988 28.8188 8.32328 76.9622 10.4961C83.2449 10.7799 88.9858 12.047 93.4187 16.458C98.8914 21.9171 101.606 29.0422 99.3949 77.0009C99.1541 82.3236 98.2621 85.2118 97.5124 87.1389C92.5595 99.8314 81.1652 101.593 32.7318 99.3716ZM77.4931 25.7929C77.4931 29.4069 80.432 32.3457 84.0604 32.3457C87.6889 32.3457 90.6332 29.4069 90.6332 25.7929C90.6332 22.179 87.6889 19.2429 84.0604 19.2429C80.432 19.2429 77.4931 22.179 77.4931 25.7929ZM26.7447 54.9338C26.7447 70.416 39.3265 82.9682 54.8471 82.9682C70.3677 82.9682 82.9495 70.416 82.9495 54.9338C82.9495 39.4516 70.3677 26.9074 54.8471 26.9074C39.3265 26.9074 26.7447 39.4516 26.7447 54.9338ZM36.6065 54.9338C36.6065 44.889 44.7718 36.7392 54.8471 36.7392C64.9223 36.7392 73.0876 44.889 73.0876 54.9338C73.0876 64.9841 64.9223 73.1364 54.8471 73.1364C44.7718 73.1364 36.6065 64.9841 36.6065 54.9338Z" fill="#DBDBDB"/>
</svg>
