<svg width="200" height="135" viewBox="0 0 200 135" fill="none" xmlns="http://www.w3.org/2000/svg">
<path fill-rule="evenodd" clip-rule="evenodd" d="M105.036 56.4885C105.94 54.1646 105.461 50.1176 105.461 50.1176C105.461 50.1176 103.627 54.6573 101.637 57.338C99.9596 59.5986 98.6562 61.0035 96.5393 62.8594C93.3203 65.6817 87.618 69.2303 87.618 69.2303C87.618 69.2303 86.3436 70.0798 85.4939 70.0798C84.9962 70.0798 85.9187 68.8056 85.9187 68.8056C85.9187 68.8056 90.7333 63.3599 93.5656 59.8863C94.0129 59.3378 94.383 58.9272 94.7626 58.5062L94.7626 58.5062C95.6472 57.525 96.5825 56.4875 98.6635 53.5155C101.637 49.2682 103.761 40.7737 103.761 40.7737C103.761 40.7737 99.3668 46.2111 96.1145 49.2682C92.5844 52.5865 86.3436 56.9133 86.3436 56.9133C86.3436 56.9133 85.5383 57.5726 85.0691 57.338C84.5998 57.1034 85.0691 55.6391 85.0691 55.6391L85.4939 54.3649C85.4939 54.3649 84.9682 54.2929 84.6443 54.3649C84.2821 54.4454 83.7946 54.7896 83.7946 54.7896C83.7946 54.7896 80.9874 56.9918 77.8471 59.4616C73.3264 63.0171 65.5272 67.9561 65.5272 67.9561C65.5272 67.9561 64.6047 68.308 64.2527 67.9561C63.9008 67.6043 64.2527 66.682 64.2527 66.682L68.9258 60.3111C68.9258 60.3111 66.6916 58.6622 65.5272 57.338C64.3424 55.9905 62.9782 53.5155 62.9782 53.5155L64.6776 59.4616C64.6776 59.4616 64.9122 60.0765 64.6776 60.3111C64.4429 60.5456 63.8279 60.3111 63.8279 60.3111C63.8279 60.3111 60.4367 57.7317 58.73 55.6391C57.596 54.2486 56.1811 52.2413 56.1811 52.2413C56.1811 52.2413 55.8577 52.8391 55.7562 53.5155C55.4406 55.6192 56.0385 56.9917 56.7905 58.7181C57.0055 59.2117 57.2331 59.7342 57.4555 60.3111C58.9236 64.1177 62.1286 69.655 62.1286 69.655C62.1286 69.655 62.662 70.9571 62.1286 71.3539C61.5337 71.7966 60.4293 70.5045 60.4293 70.5045L52.7825 59.4616C52.7825 59.4616 53.7946 67.3314 52.7825 72.2034C51.9492 76.2144 48.9591 81.9721 48.9591 81.9721C48.9591 81.9721 48.4613 82.5141 48.1094 82.3968C47.7575 82.2795 47.6846 81.5474 47.6846 81.5474C47.6846 81.5474 48.1094 78.1496 48.1094 75.6012C48.1094 73.9097 47.6846 70.9292 47.6846 70.9292C47.6846 70.9292 47.4934 69.8402 46.8349 69.655C46.5314 69.5697 45.9853 70.0798 45.9853 70.0798C45.9853 70.0798 40.4208 77.1543 36.6392 80.6979C31.0317 85.9524 24.7441 89.6171 20.071 91.3161C15.398 93.015 9.45042 93.8644 9.02559 93.015C8.60077 92.1655 12.849 88.343 12.849 88.343C12.849 88.343 20.3286 82.3904 24.3193 76.4507C26.2241 73.6155 27.293 68.8056 27.293 68.8056C27.293 68.8056 25.3036 72.3968 20.4958 75.6012C17.9469 77.3001 14.5483 78.999 14.5483 78.999C14.5483 78.999 13.9333 79.2336 13.6986 78.999C13.464 78.7644 13.6986 78.1496 13.6986 78.1496C13.6986 78.1496 18.3717 68.3809 14.9731 67.1067C14.9731 67.1067 11.4992 72.7402 8.17593 75.1765C5.24171 77.3276 0.953925 78.999 0.953925 78.999C0.953925 78.999 0.338901 79.2336 0.104277 78.999C-0.130347 78.7644 0.104277 78.1496 0.104277 78.1496C0.104277 78.1496 5.68831 68.7742 8.60076 62.4347C11.2755 56.6127 14.5483 47.5693 14.5483 47.5693C14.5483 47.5693 14.9287 46.7198 15.398 46.7198C15.8672 46.7198 16.2476 47.5693 16.2476 47.5693C16.2476 47.5693 18.4791 51.0063 20.071 53.0907C21.7856 55.3357 24.3193 58.6122 24.3193 58.6122C24.3193 58.6122 24.9956 59.4616 25.5937 59.4616C26.1919 59.4616 26.8682 58.6122 26.8682 58.6122C26.8682 58.6122 32.774 49.7507 36.6391 43.322C40.8438 36.3287 46.4101 24.6341 46.4101 24.6341C46.4101 24.6341 46.7905 23.7846 47.2598 23.7846C47.729 23.7846 48.5342 24.6341 48.5342 24.6341C48.5342 24.6341 49.6614 26.3117 51.0832 28.0319C52.2595 29.4552 52.9867 30.4668 53.8838 31.7147L53.884 31.7151C54.1957 32.1487 54.5279 32.6108 54.9066 33.1286C58.0029 37.3628 62.5534 44.1715 62.5534 44.1715L64.2527 42.8973C64.2527 42.8973 65.021 42.3346 65.5272 42.4726C65.9799 42.596 66.3768 43.322 66.3768 43.322C66.3768 43.322 67.2214 47.5778 68.9258 50.5424C70.4636 53.2173 73.5988 56.9133 73.5988 56.9133C73.5988 56.9133 80.7736 49.8357 85.0691 45.0209C89.7777 39.7431 96.5393 31.005 96.5393 31.005L102.062 24.6341C102.062 24.6341 102.541 24.2094 102.912 24.2094C103.283 24.2094 103.761 24.6341 103.761 24.6341L110.134 31.005L122.878 10.1934C122.878 10.1934 123.404 9.34397 123.728 9.34397C124.01 9.34397 124.495 9.75885 124.852 10.0654C124.906 10.111 124.956 10.1543 125.003 10.1934C125.217 10.3738 125.33 10.5164 125.431 10.643C125.545 10.7863 125.642 10.9091 125.852 11.0429C126.295 11.3245 126.602 11.4676 127.127 11.4676C127.651 11.4676 128.03 11.4138 128.401 11.0429C128.609 10.8354 128.882 10.0099 129.223 8.977C129.581 7.89552 130.014 6.58661 130.525 5.52144C131.523 3.44428 133.074 0.849452 133.074 0.849452C133.074 0.849452 133.499 0 133.924 0C134.349 0 135.198 0.849452 135.198 0.849452C135.198 0.849452 143.459 10.2384 148.368 16.5643C150.873 19.7926 152.888 23.0894 154.798 26.2157C157.901 31.2928 160.729 35.9204 164.936 39.0748C165.053 39.1624 165.164 39.2478 165.271 39.3303L165.271 39.3305C165.98 39.8764 166.52 40.2922 167.485 40.349C168.746 40.4231 172.158 35.677 172.158 35.677C172.158 35.677 172.963 34.4028 173.433 34.4028C173.902 34.4028 174.707 35.677 174.707 35.677C174.707 35.677 178.505 40.2096 180.655 43.322C183.01 46.7323 183.818 48.7555 184.593 50.6943C185.192 52.1926 185.77 53.6405 187.027 55.6391C188.864 58.5611 190.885 61.5623 192.125 62.8594C193.524 64.3232 196.373 66.682 196.373 66.682C196.373 66.682 197.34 67.3697 197.223 67.9561C197.131 68.4162 195.099 67.9561 195.099 67.9561C195.099 67.9561 192.27 66.9495 190.425 65.8325C187.113 63.8267 185.212 61.6245 182.779 58.6122C179.309 54.317 175.557 46.7198 175.557 46.7198C175.557 46.7198 174.802 45.5737 174.282 45.8704C173.96 46.0544 174.282 46.7198 174.282 46.7198L175.981 53.5155C175.981 53.5155 176 54.3301 175.557 54.7896C174.987 55.38 174.282 54.3649 174.282 54.3649C174.282 54.3649 172.694 51.3563 170.459 49.2682C168.906 47.818 166.211 45.8704 166.211 45.8704C166.211 45.8704 158.226 39.8942 153.891 35.2522C148.863 29.8684 142.845 19.9621 142.845 19.9621C142.845 19.9621 142.04 18.8781 141.571 19.1127C141.101 19.3472 141.571 20.3868 141.571 20.3868L149.642 36.5264C149.642 36.5264 150.419 38.2982 150.067 38.6501C149.715 39.0019 148.793 38.2253 148.793 38.2253L140.296 31.4297C140.296 31.4297 141.235 36.4641 142.42 39.4995C144.263 44.2162 149.218 50.5424 149.218 50.5424L156.015 59.4616C156.015 59.4616 156.955 60.7421 156.44 61.1605C155.909 61.5918 154.315 60.3111 154.315 60.3111C154.315 60.3111 147.32 54.1685 142.42 49.2682C138.436 45.2832 132.649 38.6501 132.649 38.6501C132.649 38.6501 132.269 42.6609 133.074 45.0209C133.626 46.6372 134.774 48.4187 134.774 48.4187C134.774 48.4187 135.363 49.4049 135.198 49.6929C135.014 50.0149 133.924 49.6929 133.924 49.6929C133.924 49.6929 130.482 48.6976 128.401 47.1446C126.709 45.8817 124.578 43.322 124.578 43.322C124.578 43.322 126.054 48.574 127.127 50.9671C128.156 53.2617 129.193 54.7098 130.382 56.3694L130.382 56.3697C130.956 57.17 131.565 58.0195 132.225 59.0369C133.638 61.216 134.882 62.9369 136.08 64.5942L136.081 64.5946L136.081 64.5947C137.747 66.9001 139.325 69.0824 141.146 72.2034C144.136 77.3294 147.943 85.7946 147.943 85.7946C147.943 85.7946 148.793 87.9183 148.368 87.9183C147.684 87.9183 146.669 86.6441 146.669 86.6441C146.669 86.6441 144.406 83.6317 141.571 81.5474C139.415 79.963 134.774 78.1496 134.774 78.1496C134.774 78.1496 126.422 76.2822 122.454 76.8754C121.31 77.0463 120.286 77.1838 119.324 77.313C116.359 77.7111 113.987 78.0296 110.559 78.999C105.771 80.3526 102.73 81.9417 99.0799 83.8491C97.6627 84.5896 96.1538 85.3781 94.4152 86.2193C91.4198 87.6688 89.088 88.9972 86.8201 90.2893L86.82 90.2894C83.98 91.9074 81.24 93.4684 77.4223 95.1386C68.4457 99.0658 62.9351 100.523 53.7185 102.961L52.7825 103.208C50.7772 103.739 48.6761 104.349 46.5309 104.972C39.5569 106.998 32.1181 109.159 26 109.159C18 109.159 12.1563 108.202 8.17593 105.757C6.76248 104.888 4.77735 103.208 4.77735 103.208C4.77735 103.208 4.27977 102.723 4.35252 102.359C4.4554 101.845 5.627 101.934 5.627 101.934C5.627 101.934 15.2316 102.082 21.3455 101.509C26.4885 101.027 29.7188 100.395 34.1659 99.5242C35.0725 99.3466 36.0297 99.1592 37.064 98.9611C37.8998 98.801 38.7111 98.6465 39.501 98.4961L39.5084 98.4947C50.6266 96.3771 57.4972 95.0684 68.9258 90.4666C70.2221 89.9446 71.457 89.4628 72.6437 88.9998L72.644 88.9997C79.2073 86.4389 84.299 84.4523 90.167 79.4237C99.0883 71.7787 102.062 64.1336 105.036 56.4885ZM37.4888 54.7896C37.4888 54.7896 37.7403 53.0907 38.3385 53.0907C38.9366 53.0907 39.6129 54.7896 39.6129 54.7896L40.0378 56.4885C40.0378 56.4885 40.4075 57.9755 40.8874 58.1874C41.4346 58.4291 41.7371 55.6391 41.7371 55.6391L42.1619 51.3918C42.1619 51.3918 42.5867 47.994 43.0115 47.994C43.4364 47.994 43.8612 49.2682 43.8612 49.2682L44.286 50.5424C44.286 50.5424 44.7647 51.3918 45.1357 51.3918C45.5066 51.3918 45.5605 50.5424 45.5605 50.5424L44.7108 40.7737C44.7108 40.7737 44.6212 39.6024 45.1357 39.4995C45.4994 39.4268 45.9853 39.9242 45.9853 39.9242C45.9853 39.9242 46.835 40.7737 47.2598 40.7737C47.4285 40.7737 47.5093 40.2465 47.5973 39.6716C47.7029 38.9827 47.8189 38.2253 48.1094 38.2253C48.5342 38.2253 49.3839 40.7737 49.3839 40.7737C49.3839 40.7737 50.4403 43.961 49.8087 44.1715C49.1771 44.382 47.2598 41.6231 47.2598 41.6231C47.2598 41.6231 46.8553 41.0501 46.4101 41.1984C45.938 41.3558 46.4101 43.322 46.4101 43.322L46.835 46.2951L47.6846 50.5424C47.6846 50.5424 48.2895 52.5945 48.5342 53.9402C48.9212 56.0679 48.9591 59.4616 48.9591 59.4616L46.835 56.9133C46.835 56.9133 46.6448 56.4885 46.4101 56.4885C46.1755 56.4885 45.9853 56.9133 45.9853 56.9133C45.9853 56.9133 44.4293 62.1023 42.5867 64.9831C40.2749 68.5976 38.3215 70.1379 35.256 72.5551L35.2548 72.5561C34.8838 72.8486 34.4965 73.1541 34.0902 73.4776C31.8576 75.2555 27.7179 77.7248 27.7179 77.7248C27.7179 77.7248 31.2059 74.1037 32.8158 71.3539C33.8669 69.5584 34.2649 68.4096 34.8231 66.7981C35.0831 66.0476 35.3779 65.1968 35.7895 64.1336C37.2381 60.3924 37.4888 54.7896 37.4888 54.7896ZM124.153 21.7672C123.988 22.0553 124.578 23.3599 124.578 23.3599C124.578 23.3599 126.386 28.7744 124.153 29.4123C123.515 29.5946 122.454 29.4123 122.454 29.4123C122.454 29.4123 121.414 29.3679 121.179 29.837C120.969 30.2579 121.229 30.6078 121.508 30.9816C121.54 31.0245 121.572 31.0676 121.604 31.1112C121.639 31.1592 121.674 31.2073 121.709 31.2553C122.523 32.3763 123.354 33.5214 125.427 35.2522C127.59 37.0574 128.401 37.0574 128.401 37.0574C128.401 37.0574 127.014 31.5184 127.551 28.5629C127.551 28.5629 127.773 28.2552 127.976 28.1381C128.695 27.7243 134.773 34.0843 134.773 34.0843C134.773 34.0843 136.61 35.5231 136.898 35.3585C137.22 35.1745 136.048 33.2348 136.048 33.2348C136.048 33.2348 134.73 31.1112 133.924 26.864C133.198 23.0414 133.924 20.0683 133.924 20.0683C133.924 20.0683 133.981 19.696 134.349 19.6436C135.278 19.5109 136.048 20.493 136.048 20.493L137.322 21.7672C137.322 21.7672 137.988 22.514 138.172 22.1919C138.337 21.9039 137.322 20.0683 137.322 20.0683C137.322 20.0683 136.47 18.815 136.048 17.9447C135.292 16.3864 134.773 13.6974 134.773 13.6974C134.773 13.6974 134.656 13.39 134.773 13.2727C134.891 13.1554 136.048 13.6974 136.048 13.6974C136.12 13.7135 136.193 13.7356 136.264 13.7573C136.511 13.8329 136.743 13.9036 136.898 13.6974C137.12 13.4007 136.048 12.4232 136.048 12.4232L135.623 11.9985C135.623 11.9985 134.773 11.5738 134.773 12.4232C134.773 12.7874 134.718 12.7953 134.368 12.8452L134.349 12.848C134.121 12.8805 133.866 12.7457 133.608 12.6091C133.277 12.4344 132.941 12.2567 132.649 12.4233C132.327 12.6073 133.074 14.5469 133.074 14.5469L133.499 15.8211C133.499 15.8211 134.564 18.5529 133.924 18.7942C133.433 18.9792 132.649 17.9447 132.649 17.9447C132.649 17.9447 131.632 16.6232 130.95 17.0953C130.519 17.3938 130.525 18.3694 130.525 18.3694L130.95 21.3425C130.95 21.3425 131.647 26.7644 130.95 26.864C130.431 26.9381 129.676 26.4392 129.676 26.4392C129.676 26.4392 128.344 25.6339 127.127 24.3156C126.315 23.4367 125.427 22.6167 125.427 22.6167C125.427 22.6167 124.337 21.4452 124.153 21.7672Z" fill="#58CFF6"/>
<path d="M94.6361 107.019H87.6011L87.8559 105.765L88.8245 105.552L87.6775 102.238H76.9465L74.6779 105.504L74.6524 105.599L75.3661 105.765L75.1112 107.019H68.5349L68.7898 105.765L69.9114 105.504L82.0953 88.772L81.4581 88.63L81.7385 87.3756H88.9775L88.6971 88.63L87.9834 88.772L93.5656 105.031L93.9224 105.481L94.891 105.788L94.6361 107.019ZM86.3011 98.6646L84.1345 92.4403L79.6229 98.6646H86.3011ZM122.256 97.3156C121.712 99.9348 120.395 102.191 118.305 104.084C116.147 106.041 113.768 107.019 111.168 107.019H96.0526L96.3075 105.765L97.2761 105.552L100.768 88.843L99.9015 88.63L100.182 87.3756H114.736C117.098 87.3756 118.985 88.062 120.395 89.4346C121.805 90.8073 122.511 92.6454 122.511 94.949C122.511 95.7379 122.426 96.5267 122.256 97.3156ZM118.025 97.3156C118.143 96.7792 118.203 96.2349 118.203 95.6826C118.203 94.3573 117.846 93.2923 117.132 92.4876C116.368 91.6356 115.28 91.2096 113.87 91.2096H104.872L102.298 103.54H111.601C113.249 103.54 114.685 102.862 115.909 101.505C116.979 100.321 117.685 98.925 118.025 97.3156ZM150.129 97.3156C149.483 100.345 147.682 102.798 144.725 104.676C141.854 106.49 138.506 107.398 134.683 107.398C131.454 107.398 128.88 106.601 126.959 105.007C125.039 103.398 124.079 101.378 124.079 98.9486C124.079 98.3017 124.138 97.6943 124.257 97.1263C124.835 94.381 126.611 92.0301 129.585 90.0736C132.559 88.1172 135.77 87.139 139.22 87.139C142.363 87.139 144.98 87.8884 147.07 89.3873C149.246 90.9493 150.333 92.9846 150.333 95.4933C150.333 96.0297 150.265 96.6372 150.129 97.3156ZM145.159 97.363C145.193 97.2052 145.218 97.0316 145.235 96.8423C145.252 96.653 145.261 96.4715 145.261 96.298C145.261 94.736 144.59 93.458 143.247 92.464C141.922 91.4542 140.316 90.9493 138.43 90.9493C136.373 90.9493 134.419 91.5488 132.567 92.748C130.732 93.9313 129.627 95.4065 129.253 97.1736C129.202 97.4576 129.168 97.6627 129.151 97.789C129.134 97.9152 129.126 98.1124 129.126 98.3806C129.126 99.9426 129.721 101.244 130.91 102.286C132.117 103.311 133.621 103.824 135.422 103.824C137.58 103.824 139.619 103.224 141.539 102.025C143.561 100.747 144.768 99.1932 145.159 97.363Z" fill="#595959"/>
<path d="M167.332 96.7476H166.38L166.329 96.3058H161.554L159.498 106.088L160.076 106.23L159.906 107.066H155.624L155.794 106.23L156.44 106.088L158.496 96.3058H153.653L153.381 96.7476H152.446L153.126 93.4974H154.078L154.146 93.9392H166.822L167.077 93.4974H168.012L167.332 96.7476ZM180.808 107.54H179.857L179.806 107.098H166.602L166.772 106.262L167.418 106.104L169.763 94.9332L169.185 94.7754L169.355 93.9392H181.913L182.168 93.4974H183.102L182.423 96.7318H181.471L181.42 96.2743H172.601L172.006 99.1143H177.903L178.175 98.6725H179.109L178.395 102.065H177.444L177.376 101.623H171.479L170.834 104.763H180.299L180.554 104.305H181.488L180.808 107.54ZM189.77 94.9332L191.962 98.1045L195.48 94.9647L195.004 94.8385L195.174 94.0023H200L199.83 94.8385L198.997 95.0278L193.356 100.219L197.417 106.072L198.148 106.262L197.978 107.098H193.05L193.169 106.546L193.543 106.183L190.96 102.396L186.729 106.183L187 106.262L186.83 107.098H182.208L182.378 106.262L183.194 106.072L189.583 100.329L186.151 95.0278L185.42 94.8385L185.59 94.0023H190.382L190.212 94.8385L189.77 94.9332Z" fill="#595959"/>
<path d="M5.33334 121.223H6.60939V122.997C7.1198 122.318 7.68491 121.811 8.3047 121.477C8.92449 121.138 9.59897 120.968 10.3281 120.968C11.0695 120.968 11.7257 121.156 12.2969 121.532C12.8741 121.908 13.2995 122.415 13.5729 123.052C13.8463 123.689 13.9831 124.681 13.9831 126.027V131.123H12.7161V126.4C12.7161 125.26 12.6675 124.499 12.5703 124.116C12.4184 123.461 12.1328 122.97 11.7135 122.642C11.2943 122.309 10.7474 122.142 10.0729 122.142C9.30123 122.142 8.60852 122.396 7.9948 122.906C7.38716 123.416 6.98612 124.047 6.79168 124.799C6.67015 125.29 6.60939 126.188 6.60939 127.492V131.123H5.33334V121.223ZM26.9422 127.838L28.0177 128.402C27.6653 129.094 27.2582 129.652 26.7963 130.077C26.3345 130.502 25.815 130.826 25.2378 131.051C24.6605 131.269 24.0073 131.378 23.2781 131.378C21.6618 131.378 20.3979 130.85 19.4865 129.795C18.575 128.733 18.1193 127.535 18.1193 126.2C18.1193 124.944 18.5051 123.825 19.2768 122.842C20.2551 121.593 21.5646 120.968 23.2052 120.968C24.8945 120.968 26.2434 121.608 27.2521 122.888C27.9691 123.792 28.3337 124.92 28.3459 126.273H19.4318C19.4561 127.426 19.8237 128.372 20.5347 129.112C21.2456 129.846 22.1236 130.213 23.1687 130.213C23.6731 130.213 24.1623 130.125 24.6362 129.949C25.1163 129.774 25.5233 129.54 25.8575 129.249C26.1917 128.958 26.5533 128.487 26.9422 127.838ZM26.9422 125.172C26.7721 124.493 26.5229 123.95 26.1948 123.543C25.8727 123.137 25.4443 122.809 24.9097 122.56C24.3749 122.312 23.8129 122.187 23.2235 122.187C22.2512 122.187 21.4157 122.5 20.7169 123.124C20.2065 123.579 19.8207 124.262 19.5594 125.172H26.9422ZM31.2607 121.223H32.5732L35.6083 128.412L38.7893 121.223H39.0172L42.1891 128.412L45.2789 121.223H46.6097L42.3075 131.123H42.0615L38.9078 124.034L35.7268 131.123H35.4899L31.2607 121.223ZM58.1359 117.546H59.4211V121.223H61.4445V122.315H59.4211V131.123H58.1359V122.315H56.3951V121.223H58.1359V117.546ZM73.5648 127.838L74.6408 128.402C74.2881 129.094 73.8808 129.652 73.4195 130.077C72.9575 130.502 72.4381 130.826 71.8607 131.051C71.2834 131.269 70.6302 131.378 69.9011 131.378C68.2847 131.378 67.0209 130.85 66.1094 129.795C65.1979 128.733 64.7422 127.535 64.7422 126.2C64.7422 124.944 65.1281 123.825 65.8997 122.842C66.8781 121.593 68.1875 120.968 69.8281 120.968C71.5174 120.968 72.8661 121.608 73.8748 122.888C74.5921 123.792 74.9568 124.92 74.9688 126.273H66.0547C66.079 127.426 66.4466 128.372 67.1575 129.112C67.8685 129.846 68.7465 130.213 69.7917 130.213C70.296 130.213 70.7851 130.125 71.2591 129.949C71.7391 129.774 72.1461 129.54 72.4808 129.249C72.8148 128.958 73.1761 128.487 73.5648 127.838ZM73.5648 125.172C73.3948 124.493 73.1461 123.95 72.8175 123.543C72.4955 123.137 72.0675 122.809 71.5325 122.56C70.9979 122.312 70.4358 122.187 69.8463 122.187C68.8741 122.187 68.0387 122.5 67.3399 123.124C66.8295 123.579 66.4436 124.262 66.1823 125.172H73.5648ZM88.8481 123.279L87.8368 123.907C86.9615 122.748 85.7675 122.169 84.2548 122.169C83.0455 122.169 82.0401 122.557 81.2375 123.334C80.4415 124.11 80.0435 125.054 80.0435 126.164C80.0435 126.886 80.2261 127.565 80.5908 128.202C80.9615 128.839 81.4655 129.334 82.1035 129.686C82.7475 130.037 83.4681 130.213 84.2641 130.213C85.7221 130.213 86.9128 129.634 87.8368 128.475L88.8481 129.14C88.3748 129.849 87.7368 130.401 86.9341 130.796C86.1381 131.184 85.2301 131.378 84.2088 131.378C82.6415 131.378 81.3408 130.881 80.3081 129.886C79.2748 128.891 78.7588 127.681 78.7588 126.255C78.7588 125.296 78.9988 124.408 79.4788 123.589C79.9648 122.764 80.6301 122.12 81.4748 121.659C82.3195 121.198 83.2641 120.968 84.3095 120.968C84.9655 120.968 85.5975 121.068 86.2055 121.268C86.8188 121.468 87.3381 121.729 87.7641 122.051C88.1895 122.372 88.5508 122.782 88.8481 123.279ZM93.1761 117.401H94.4521V122.997C94.9688 122.318 95.5368 121.811 96.1568 121.477C96.7761 121.138 97.4475 120.968 98.1708 120.968C98.9121 120.968 99.5681 121.156 100.139 121.532C100.717 121.908 101.142 122.415 101.415 123.052C101.689 123.683 101.825 124.675 101.825 126.027V131.123H100.549V126.4C100.549 125.26 100.504 124.499 100.413 124.116C100.255 123.461 99.9661 122.97 99.5475 122.642C99.1341 122.309 98.5901 122.142 97.9155 122.142C97.1441 122.142 96.4515 122.396 95.8375 122.906C95.2301 123.416 94.8288 124.047 94.6341 124.799C94.5128 125.284 94.4521 126.182 94.4521 127.492V131.123H93.1761V117.401ZM106.436 121.223H107.712V122.997C108.222 122.318 108.787 121.811 109.407 121.477C110.027 121.138 110.701 120.968 111.431 120.968C112.172 120.968 112.828 121.156 113.399 121.532C113.977 121.908 114.402 122.415 114.675 123.052C114.949 123.689 115.085 124.681 115.085 126.027V131.123H113.819V126.4C113.819 125.26 113.77 124.499 113.673 124.116C113.521 123.461 113.235 122.97 112.816 122.642C112.397 122.309 111.85 122.142 111.175 122.142C110.404 122.142 109.711 122.396 109.097 122.906C108.489 123.416 108.089 124.047 107.894 124.799C107.773 125.29 107.712 126.188 107.712 127.492V131.123H106.436V121.223ZM124.39 120.968C125.915 120.968 127.179 121.52 128.181 122.624C129.093 123.631 129.549 124.823 129.549 126.2C129.549 127.583 129.065 128.794 128.099 129.831C127.139 130.863 125.903 131.378 124.39 131.378C122.871 131.378 121.628 130.863 120.662 129.831C119.702 128.794 119.222 127.583 119.222 126.2C119.222 124.829 119.677 123.64 120.589 122.633C121.591 121.523 122.859 120.968 124.39 120.968ZM124.39 122.214C123.333 122.214 122.424 122.606 121.665 123.388C120.905 124.171 120.525 125.117 120.525 126.228C120.525 126.943 120.698 127.611 121.045 128.23C121.391 128.848 121.859 129.328 122.448 129.667C123.038 130.001 123.685 130.168 124.39 130.168C125.095 130.168 125.742 130.001 126.331 129.667C126.921 129.328 127.389 128.848 127.735 128.23C128.081 127.611 128.254 126.943 128.254 126.228C128.254 125.117 127.871 124.171 127.106 123.388C126.346 122.606 125.441 122.214 124.39 122.214ZM133.603 117.401H134.879V131.123H133.603V117.401ZM144.092 120.968C145.617 120.968 146.881 121.52 147.883 122.624C148.795 123.631 149.251 124.823 149.251 126.2C149.251 127.583 148.767 128.794 147.801 129.831C146.841 130.863 145.605 131.378 144.092 131.378C142.573 131.378 141.33 130.863 140.364 129.831C139.404 128.794 138.924 127.583 138.924 126.2C138.924 124.829 139.379 123.64 140.291 122.633C141.293 121.523 142.561 120.968 144.092 120.968ZM144.092 122.214C143.035 122.214 142.126 122.606 141.367 123.388C140.607 124.171 140.227 125.117 140.227 126.228C140.227 126.943 140.401 127.611 140.747 128.23C141.093 128.848 141.561 129.328 142.151 129.667C142.74 130.001 143.387 130.168 144.092 130.168C144.797 130.168 145.444 130.001 146.033 129.667C146.623 129.328 147.091 128.848 147.437 128.23C147.783 127.611 147.957 126.943 147.957 126.228C147.957 125.117 147.573 124.171 146.808 123.388C146.049 122.606 145.143 122.214 144.092 122.214ZM162.037 121.223H163.322V129.112C163.322 130.502 163.2 131.518 162.957 132.161C162.623 133.071 162.043 133.771 161.216 134.263C160.39 134.754 159.397 135 158.236 135C157.385 135 156.619 134.879 155.939 134.636C155.265 134.399 154.715 134.078 154.289 133.671C153.864 133.271 153.472 132.683 153.113 131.906H154.499C154.875 132.561 155.362 133.047 155.957 133.362C156.553 133.677 157.291 133.835 158.172 133.835C159.041 133.835 159.773 133.671 160.369 133.344C160.97 133.022 161.399 132.616 161.654 132.124C161.909 131.633 162.037 130.841 162.037 129.749V129.24C161.557 129.846 160.97 130.313 160.277 130.641C159.585 130.963 158.849 131.123 158.072 131.123C157.16 131.123 156.303 130.899 155.501 130.45C154.699 129.995 154.079 129.385 153.642 128.621C153.205 127.856 152.986 127.016 152.986 126.1C152.986 125.184 153.214 124.332 153.669 123.543C154.125 122.748 154.754 122.12 155.556 121.659C156.364 121.198 157.215 120.968 158.108 120.968C158.849 120.968 159.539 121.122 160.177 121.432C160.821 121.735 161.441 122.239 162.037 122.942V121.223ZM158.272 122.196C157.549 122.196 156.878 122.372 156.258 122.724C155.638 123.07 155.152 123.552 154.799 124.171C154.447 124.784 154.271 125.448 154.271 126.164C154.271 127.25 154.635 128.148 155.365 128.857C156.094 129.567 157.039 129.922 158.199 129.922C159.372 129.922 160.314 129.57 161.025 128.867C161.742 128.163 162.101 127.238 162.101 126.091C162.101 125.345 161.937 124.681 161.608 124.098C161.28 123.51 160.815 123.046 160.214 122.706C159.612 122.366 158.965 122.196 158.272 122.196ZM168.369 117.146C168.661 117.146 168.91 117.249 169.117 117.455C169.323 117.661 169.427 117.91 169.427 118.201C169.427 118.487 169.323 118.732 169.117 118.938C168.91 119.145 168.661 119.248 168.369 119.248C168.084 119.248 167.838 119.145 167.631 118.938C167.425 118.732 167.321 118.487 167.321 118.201C167.321 117.91 167.425 117.661 167.631 117.455C167.838 117.249 168.084 117.146 168.369 117.146ZM167.731 121.223H169.017V131.123H167.731V121.223ZM181.875 127.838L182.951 128.402C182.599 129.094 182.191 129.652 181.729 130.077C181.268 130.502 180.748 130.826 180.171 131.051C179.594 131.269 178.941 131.378 178.211 131.378C176.595 131.378 175.331 130.85 174.419 129.795C173.508 128.733 173.053 127.535 173.053 126.2C173.053 124.944 173.438 123.825 174.21 122.842C175.188 121.593 176.498 120.968 178.139 120.968C179.827 120.968 181.177 121.608 182.185 122.888C182.902 123.792 183.267 124.92 183.279 126.273H174.365C174.389 127.426 174.757 128.372 175.468 129.112C176.179 129.846 177.057 130.213 178.102 130.213C178.606 130.213 179.095 130.125 179.569 129.949C180.049 129.774 180.457 129.54 180.791 129.249C181.125 128.958 181.487 128.487 181.875 127.838ZM181.875 125.172C181.705 124.493 181.456 123.95 181.128 123.543C180.806 123.137 180.377 122.809 179.843 122.56C179.308 122.312 178.746 122.187 178.157 122.187C177.185 122.187 176.349 122.5 175.65 123.124C175.14 123.579 174.754 124.262 174.493 125.172H181.875ZM192.519 122.305L191.699 123.152C191.019 122.491 190.353 122.16 189.703 122.16C189.29 122.16 188.935 122.296 188.637 122.569C188.345 122.842 188.199 123.161 188.199 123.525C188.199 123.846 188.321 124.153 188.564 124.444C188.807 124.741 189.317 125.09 190.095 125.49C191.043 125.982 191.687 126.455 192.027 126.91C192.361 127.371 192.529 127.89 192.529 128.466C192.529 129.279 192.243 129.968 191.672 130.532C191.101 131.096 190.387 131.378 189.53 131.378C188.959 131.378 188.412 131.254 187.889 131.005C187.373 130.756 186.944 130.414 186.604 129.977L187.406 129.067C188.056 129.801 188.746 130.168 189.475 130.168C189.985 130.168 190.42 130.004 190.779 129.677C191.137 129.349 191.316 128.964 191.316 128.521C191.316 128.157 191.198 127.832 190.961 127.547C190.724 127.268 190.189 126.916 189.357 126.491C188.463 126.03 187.856 125.575 187.534 125.126C187.212 124.678 187.051 124.165 187.051 123.589C187.051 122.836 187.306 122.211 187.816 121.714C188.333 121.217 188.983 120.968 189.767 120.968C190.678 120.968 191.596 121.414 192.519 122.305Z" fill="#595959"/>
</svg>
