<svg width="138" height="110" viewBox="0 0 138 110" fill="none" xmlns="http://www.w3.org/2000/svg">
<path fill-rule="evenodd" clip-rule="evenodd" d="M43.2438 109.999C95.1294 109.999 123.509 67.6731 123.509 30.973C123.509 29.7682 123.509 28.5724 123.427 27.3811C128.947 23.4552 133.712 18.5808 137.5 13.0034C132.357 15.2506 126.892 16.7243 121.302 17.3741C127.187 13.9017 131.594 8.44646 133.705 2.00939C128.164 5.24484 122.107 7.52828 115.789 8.75347C105.105 -2.42851 87.2369 -2.97028 75.8725 7.54833C68.5506 14.3306 65.4362 24.4428 67.7119 34.0882C45.0312 32.9647 23.8975 22.4192 9.57 5.07092C2.08313 17.7622 5.9125 33.992 18.3081 42.1415C13.8188 42.0129 9.42563 40.8229 5.5 38.6705V39.0229C5.50688 52.2423 14.9738 63.6249 28.1325 66.2443C23.98 67.3612 19.6212 67.5231 15.4 66.7176C19.0919 78.035 29.6862 85.7866 41.7519 86.0099C31.7625 93.7398 19.4219 97.9372 6.71688 97.9237C4.47563 97.9169 2.23438 97.7882 0 97.5242C12.9044 105.674 27.9125 109.999 43.2438 109.978" fill="#DBDBDB"/>
</svg>
